<?xml version="1.0" encoding="iso-8859-1"?>
<!-- Generator: Adobe Illustrator 19.1.0, SVG Export Plug-In . SVG Version: 6.00 Build 0)  -->
<svg version="1.1" id="Capa_1" xmlns="http://www.w3.org/2000/svg" xmlns:xlink="http://www.w3.org/1999/xlink" x="0px" y="0px"
	 viewBox="0 0 452.01 452.01" style="enable-background:new 0 0 452.01 452.01;" xml:space="preserve">
<g>
	<g id="XMLID_4_">
		<g>
			<polygon style="fill:#4489D3;" points="33.29,168.24 33.29,202.42 11.74,185.33 			"/>
			<polygon style="fill:#4489D3;" points="440.27,185.33 418.72,202.42 418.72,168.24 			"/>
			<polygon style="fill:#4489D3;" points="335.26,102.07 116.74,102.07 226,15.43 			"/>
			<polygon style="fill:#4489D3;" points="160.09,314.45 9,434.26 9,194.64 			"/>
			<polygon style="fill:#4489D3;" points="443.01,194.64 443.01,434.26 291.92,314.45 			"/>
			<polygon style="fill:#4489D3;" points="434.59,439.07 17.42,439.07 226.01,273.67 			"/>
			<polygon style="fill:#FFCC73;" points="299.36,297.07 284.68,308.7 270,297.07 			"/>
			<polygon style="fill:#FFCC73;" points="182.01,297.07 167.33,308.7 152.66,297.07 			"/>
			<polygon style="fill:#FFCC73;" points="349.8,257.07 310.71,288.07 258.65,288.07 226.01,262.18 193.36,288.07 141.31,288.07 
				102.21,257.07 			"/>
			<path style="fill:#FFCC73;" d="M409.72,111.07v98.48l-48.57,38.52H90.86l-48.57-38.52v-98.48H409.72z M362.01,217.07v-9h-272v9
				H362.01z M362.01,177.07v-9h-272v9H362.01z"/>
			<path d="M452.01,183.15v264.92H0V183.15l33.29-26.4v-54.68h68.96L226,3.94l123.75,98.13h68.97v54.68L452.01,183.15z
				 M443.01,434.26V194.64L291.92,314.45L443.01,434.26z M418.72,202.42l21.55-17.09l-21.55-17.09V202.42z M17.42,439.07h417.17
				l-208.58-165.4L17.42,439.07z M409.72,209.55v-98.48H42.29v98.48l48.57,38.52h270.29L409.72,209.55z M310.71,288.07l39.09-31
				H102.21l39.1,31h52.05l32.65-25.89l32.64,25.89H310.71z M116.74,102.07h218.52L226,15.43L116.74,102.07z M284.68,308.7
				l14.68-11.63H270L284.68,308.7z M167.33,308.7l14.68-11.63h-29.35L167.33,308.7z M9,434.26l151.09-119.81L9,194.64V434.26z
				 M33.29,202.42v-34.18l-21.55,17.09L33.29,202.42z"/>
			<rect x="90.01" y="208.07" width="272" height="9"/>
			<rect x="90.01" y="168.07" width="272" height="9"/>
		</g>
	</g>
</g>
<g>
</g>
<g>
</g>
<g>
</g>
<g>
</g>
<g>
</g>
<g>
</g>
<g>
</g>
<g>
</g>
<g>
</g>
<g>
</g>
<g>
</g>
<g>
</g>
<g>
</g>
<g>
</g>
<g>
</g>
</svg>
